<?xml version="1.0" encoding="utf-8"?>
<!-- Generator: Adobe Illustrator 26.2.1, SVG Export Plug-In . SVG Version: 6.00 Build 0)  -->
<svg version="1.1" id="Layer_1" xmlns="http://www.w3.org/2000/svg" xmlns:xlink="http://www.w3.org/1999/xlink" x="0px" y="0px"
	 viewBox="0 0 896 896" style="enable-background:new 0 0 896 896;" xml:space="preserve">
<style type="text/css">
	.st0{fill-rule:evenodd;clip-rule:evenodd;fill:#FDDBA9;}
	.st1{font-family:'TeleNeo-Medium';}
	.st2{font-size:80px;}
	.st3{fill:none;stroke:#000000;stroke-width:8;stroke-linecap:round;}
	.st4{fill:none;stroke:#000000;stroke-width:8;}
	.st5{fill:none;}
</style>
<g id="Galaxy-S8_x2B_">
	<g id="Start" transform="translate(-1462.000000, -999.000000)">
		<g id="Binds" transform="translate(1462.000000, 999.000000)">
			<path class="st0" d="M896,448c0,105.2-36.3,202-97,278.5H97C36.3,650,0,553.2,0,448C0,200.6,200.6,0,448,0S896,200.6,896,448z"/>
			<text transform="matrix(1 0 0 1 211.5999 510.4322)" class="st1 st2">Blinds controls</text>
			<g id="icons_x2F_custom_x2F_blinds" transform="translate(364.000000, 193.000000)">
				<line id="Path" class="st3" x1="1.3" y1="1.3" x2="166" y2="1.3"/>
				<path id="Rectangle" class="st4" d="M2.3,22.9H165c0.6,0,1,0.4,1,1v25c0,0.6-0.4,1-1,1H2.3c-0.6,0-1-0.4-1-1v-25
					C1.3,23.4,1.8,22.9,2.3,22.9z"/>
				<path id="Rectangle_00000128445189349874692170000014799509864369920652_" class="st4" d="M1,71.5h162.6c0.6,0,1,0.4,1,1v25
					c0,0.6-0.4,1-1,1H1c-0.6,0-1-0.4-1-1v-25C0,72,0.4,71.5,1,71.5z"/>
				<path id="Rectangle_00000052801011317680138920000000003988121938039217_" class="st4" d="M1,117.4h162.6c0.6,0,1,0.4,1,1v25
					c0,0.6-0.4,1-1,1H1c-0.6,0-1-0.4-1-1v-25C0,117.8,0.4,117.4,1,117.4z"/>
				<line id="Path_00000013186103484968956800000014301030094223583399_" class="st4" x1="28.3" y1="4" x2="28.3" y2="22.9"/>
				<line id="Path_00000183966232148811399380000008873292988903720864_" class="st4" x1="28.3" y1="52.6" x2="28.3" y2="68.8"/>
				<line id="Path_00000138562649853208720080000012704512888093244309_" class="st4" x1="28.3" y1="98.5" x2="28.3" y2="114.7"/>
				<line id="Path_00000066492021913042387880000005525124906065958042_" class="st4" x1="136.3" y1="1.3" x2="136.3" y2="22.9"/>
				<line id="Path_00000132799431238112441820000017719183071088980864_" class="st4" x1="136.3" y1="52.6" x2="136.3" y2="68.8"/>
				<line id="Path_00000085938845996183938410000012090682271026651299_" class="st4" x1="136.3" y1="98.5" x2="136.3" y2="114.7"/>
				
					<line id="Path_00000159461630347485492560000009499365993107935672_" class="st4" x1="136.3" y1="144.4" x2="136.3" y2="176.8"/>
				<circle id="Oval_00000007392648906993052960000002385018634120230323_" class="st4" cx="136.3" cy="186.2" r="9.4"/>
			</g>
		</g>
	</g>
</g>
<line class="st5" x1="799" y1="726.5" x2="97.1" y2="726.5"/>
</svg>
