<?xml version="1.0" encoding="UTF-8"?>
<svg width="1056px" height="1056px" viewBox="0 0 1056 1056" version="1.1" xmlns="http://www.w3.org/2000/svg" xmlns:xlink="http://www.w3.org/1999/xlink">
    <title>Light</title>
    <g id="Galaxy-S8+" stroke="none" stroke-width="1" fill="none" fill-rule="evenodd">
        <g id="Start" transform="translate(-290.000000, 84.000000)">
            <g id="Light" transform="translate(290.000000, -84.000000)">
                <circle id="Oval" fill="#98CA97" cx="528" cy="528" r="528"></circle>
                <text id="Light-settings" fill="#111111" fill-rule="nonzero" font-family="TeleNeo-Medium, TeleNeo" font-size="80" font-weight="400">
                    <tspan x="308.44" y="599">Light settings</tspan>
                </text>
                <g id="icons/custom/screen-copy" transform="translate(412.000000, 349.240000)" stroke="#000000" stroke-width="8">
                    <line x1="35.9316" y1="3.24" x2="35.9316" y2="92.2428" id="Path"></line>
                    <line x1="114.6312" y1="3.24" x2="114.6312" y2="140.5836" id="Path"></line>
                    <path d="M114.6312,140.5836 C94.8024,140.5836 78.6996,158.7924 78.6996,181.2132 C78.7235742,183.153097 78.8642283,185.089795 79.1208,187.0128 L150.174,187.0128 C150.419659,185.089134 150.549493,183.152443 150.5628,181.2132 C150.5628,158.76 134.4924,140.5836 114.6312,140.5836 Z" id="Path"></path>
                    <path d="M35.9316,93.0528 C16.2,93.0528 5.68434189e-14,111.2292 5.68434189e-14,133.65 C0.00898766913,135.601264 0.149707675,137.549695 0.4212,139.482 L71.4744,139.482 C71.7189697,137.547375 71.8487968,135.599969 71.8632,133.65 C71.8632,111.2292 55.7928,93.0528 35.9316,93.0528 Z" id="Path"></path>
                    <line x1="193.3632" y1="3.24" x2="193.3632" y2="193.0068" id="Path"></line>
                    <path d="M193.3632,193.0068 C173.502,193.0068 157.4316,211.2156 157.4316,233.6364 C157.444907,235.575643 157.574741,237.512334 157.8204,239.436 L228.8736,239.436 C229.146315,237.514691 229.287044,235.576952 229.2948,233.6364 C229.2948,211.2156 213.192,193.0068 193.3632,193.0068 Z" id="Path"></path>
                    <line x1="14.58" y1="1.62" x2="215.46" y2="1.62" id="Line-3" stroke-linecap="round"></line>
                </g>
            </g>
        </g>
    </g>
</svg>