<?xml version="1.0" encoding="utf-8"?>
<!-- Generator: Adobe Illustrator 26.2.1, SVG Export Plug-In . SVG Version: 6.00 Build 0)  -->
<svg version="1.1" id="Layer_1" xmlns="http://www.w3.org/2000/svg" xmlns:xlink="http://www.w3.org/1999/xlink" x="0px" y="0px"
	 viewBox="0 0 1056 1056" style="enable-background:new 0 0 1056 1056;" xml:space="preserve">
<style type="text/css">
	.st0{fill-rule:evenodd;clip-rule:evenodd;fill:#98CA97;}
	.st1{fill:#111111;}
	.st2{font-family:'TeleNeo-Medium';}
	.st3{font-size:80px;}
	.st4{fill:none;stroke:#000000;stroke-width:8;}
	.st5{fill:none;stroke:#000000;stroke-width:8;stroke-linecap:round;}
	.st6{fill:none;}
</style>
<g id="Galaxy-S8_x2B_">
	<g id="Start" transform="translate(-290.000000, 84.000000)">
		<g id="Light" transform="translate(290.000000, -84.000000)">
			<path class="st0" d="M1056,528c0,291.6-236.4,528-528,528S0,819.6,0,528C0,348.3,89.8,189.5,227,94.1h602
				C966.2,189.5,1056,348.3,1056,528z"/>
			<text transform="matrix(1 0 0 1 308.44 723)" class="st1 st2 st3">Light settings</text>
			<g id="icons_x2F_custom_x2F_screen-copy" transform="translate(412.000000, 349.240000)">
				<line id="Path" class="st4" x1="35.9" y1="-43.8" x2="35.9" y2="45.2"/>
				<line id="Path_00000134241400472011100230000012468639583865055141_" class="st4" x1="114.6" y1="-43.8" x2="114.6" y2="93.6"/>
				<path id="Path_00000063621124183365083650000014400282968288595600_" class="st4" d="M114.6,93.6c-19.8,0-35.9,18.2-35.9,40.6
					c0,1.9,0.2,3.9,0.4,5.8h71.1c0.2-1.9,0.4-3.9,0.4-5.8C150.6,111.8,134.5,93.6,114.6,93.6z"/>
				<path id="Path_00000008871626780286921110000010312274447508445085_" class="st4" d="M35.9,46.1C16.2,46.1,0,64.2,0,86.6
					c0,2,0.1,3.9,0.4,5.8h71.1c0.2-1.9,0.4-3.9,0.4-5.8C71.9,64.2,55.8,46.1,35.9,46.1z"/>
				<line id="Path_00000106126176480485819210000006575736880296847017_" class="st4" x1="193.4" y1="-43.8" x2="193.4" y2="146"/>
				<path id="Path_00000122700067547444353920000014880940332148846524_" class="st4" d="M193.4,146c-19.9,0-35.9,18.2-35.9,40.6
					c0,1.9,0.1,3.9,0.4,5.8h71.1c0.3-1.9,0.4-3.9,0.4-5.8C229.3,164.2,213.2,146,193.4,146z"/>
				<line id="Line-3" class="st5" x1="14.6" y1="-45.4" x2="215.5" y2="-45.4"/>
			</g>
		</g>
	</g>
</g>
<line class="st6" x1="829" y1="94.1" x2="227" y2="94.1"/>
</svg>
