<?xml version="1.0" encoding="UTF-8"?><svg xmlns="http://www.w3.org/2000/svg" viewBox="0 0 31.29 66.16"><defs><style>.d{fill:none;stroke:#000;stroke-miterlimit:10;stroke-width:2px;}</style></defs><g id="a"/><g id="b"><g id="c"><path class="d" d="M22,31.93c-4.24,5.01-5.22,12.28-5.22,12.28-.15,1.09-.23,2.52-.17,3.19s-.8,1.2-1.9,1.2h-3.61c-1.1,0-2.04-.56-2.1-1.25s0-2.15,.11-3.24c0,0,.95-8.9,5.76-14.68,4.34-5.11,6.74-8.87,6.74-13.2,0-4.91-3.08-8.19-9.15-8.29-3.47,0-7.93,2.13-7.93,2.13-.99,.47-2.13,.02-2.52-1.01l-.89-2.33c-.39-1.03,.11-2.23,1.12-2.68,0,0,6.84-3.04,11.95-3.04,11.08,0,16.09,6.84,16.09,14.16,0,6.55-3.66,11.27-8.29,16.77Z"/><path class="d" d="M11.95,65.16c-3.28,0-5.59-2.6-5.59-5.97,0-3.57,2.41-6.07,5.68-6.07,3.47,0,5.68,2.51,5.68,6.07,0,3.37-2.22,5.97-5.78,5.97Z"/></g></g></svg>